G04*
G04 #@! TF.GenerationSoftware,Altium Limited,Altium Designer,23.6.0 (18)*
G04*
G04 Layer_Physical_Order=1*
G04 Layer_Color=255*
%FSLAX44Y44*%
%MOMM*%
G71*
G04*
G04 #@! TF.SameCoordinates,C9CF0EA5-BD81-4667-878B-FE06A039374B*
G04*
G04*
G04 #@! TF.FilePolarity,Positive*
G04*
G01*
G75*
G04:AMPARAMS|DCode=10|XSize=1.0746mm|YSize=0.538mm|CornerRadius=0.269mm|HoleSize=0mm|Usage=FLASHONLY|Rotation=90.000|XOffset=0mm|YOffset=0mm|HoleType=Round|Shape=RoundedRectangle|*
%AMROUNDEDRECTD10*
21,1,1.0746,0.0000,0,0,90.0*
21,1,0.5366,0.5380,0,0,90.0*
1,1,0.5380,0.0000,0.2683*
1,1,0.5380,0.0000,-0.2683*
1,1,0.5380,0.0000,-0.2683*
1,1,0.5380,0.0000,0.2683*
%
%ADD10ROUNDEDRECTD10*%
%ADD11R,0.5380X1.0746*%
%ADD12R,1.8000X1.2500*%
%ADD13C,0.2540*%
%ADD14C,1.2700*%
%ADD15C,1.4000*%
%ADD16R,1.4000X1.4000*%
%ADD17C,2.5500*%
D10*
X867410Y789130D02*
D03*
X876910Y770430D02*
D03*
D11*
X857910D02*
D03*
D12*
X966470Y764530D02*
D03*
Y795030D02*
D03*
X775970Y764530D02*
D03*
Y795030D02*
D03*
D13*
X679450Y723900D02*
X1225550D01*
X679450Y939800D02*
X1225550D01*
Y723900D02*
Y939800D01*
X679450Y723900D02*
Y939800D01*
D14*
X908860Y789130D02*
X933460Y764530D01*
X966470D01*
X905510Y741680D02*
X1146810D01*
X1168400Y763270D01*
Y864870D01*
X1113790Y868680D02*
Y881380D01*
X1131570Y899160D01*
X1155700D01*
X1168400Y886460D01*
Y864870D02*
Y886460D01*
X977900Y863600D02*
X989330Y875030D01*
X787400Y863600D02*
X825500D01*
X762000Y809000D02*
X775970Y795030D01*
X762000Y809000D02*
Y863600D01*
X880110Y767080D02*
X902970Y744220D01*
X1033780Y764540D02*
X1127760D01*
X1143000Y779780D01*
Y864870D01*
X966470Y764530D02*
X1041390D01*
X999490Y864870D02*
X1117600D01*
X979170Y885190D02*
X999490Y864870D01*
X927100Y885190D02*
X979170D01*
X924560Y882650D02*
X927100Y885190D01*
X924560Y866140D02*
Y882650D01*
Y866140D02*
X927100Y863600D01*
X816610D02*
X927100D01*
X852010Y764530D02*
X857250Y769770D01*
X867410Y789130D02*
X908860D01*
X775970Y764530D02*
X852010D01*
X952500Y809000D02*
X966470Y795030D01*
X952500Y809000D02*
Y863600D01*
D15*
X762000D02*
D03*
X952500D02*
D03*
X1143000Y864870D02*
D03*
D16*
X787400Y863600D02*
D03*
X977900D02*
D03*
X1168400Y864870D02*
D03*
D17*
X711200Y914400D02*
D03*
X812800D02*
D03*
X901700D02*
D03*
X1003300D02*
D03*
X1092200Y915670D02*
D03*
X1193800D02*
D03*
M02*
